<svg xmlns="http://www.w3.org/2000/svg" viewBox="0 0 240 240">
  <rect width="240" height="240" fill="#f5f5f5" rx="16"/>
  <rect x="28" y="28" width="60" height="60" fill="#0f172a" rx="6"/>
  <rect x="152" y="28" width="60" height="60" fill="#0f172a" rx="6"/>
  <rect x="28" y="152" width="60" height="60" fill="#0f172a" rx="6"/>
  <rect x="152" y="152" width="60" height="60" fill="#0f172a" rx="6"/>
  <rect x="90" y="90" width="60" height="60" fill="#0f172a" rx="6"/>
  <rect x="40" y="40" width="36" height="36" fill="#f5f5f5" rx="4"/>
  <rect x="164" y="40" width="36" height="36" fill="#f5f5f5" rx="4"/>
  <rect x="40" y="164" width="36" height="36" fill="#f5f5f5" rx="4"/>
  <rect x="164" y="164" width="36" height="36" fill="#f5f5f5" rx="4"/>
  <rect x="102" y="102" width="36" height="36" fill="#f5f5f5" rx="4"/>
  <rect x="28" y="102" width="24" height="24" fill="#0f172a" rx="4"/>
  <rect x="188" y="102" width="24" height="24" fill="#0f172a" rx="4"/>
  <rect x="102" y="28" width="24" height="24" fill="#0f172a" rx="4"/>
  <rect x="102" y="188" width="24" height="24" fill="#0f172a" rx="4"/>
  <rect x="74" y="74" width="18" height="18" fill="#0f172a" rx="3"/>
  <rect x="148" y="74" width="18" height="18" fill="#0f172a" rx="3"/>
  <rect x="74" y="148" width="18" height="18" fill="#0f172a" rx="3"/>
  <rect x="148" y="148" width="18" height="18" fill="#0f172a" rx="3"/>
  <rect x="116" y="116" width="12" height="12" fill="#0f172a" rx="2"/>
</svg>
